<mxfile host="www.draw.io" modified="2019-11-22T09:59:04.868Z" agent="Mozilla/5.0 (Windows NT 10.0; Win64; x64) AppleWebKit/537.36 (KHTML, like Gecko) Chrome/78.0.3904.108 Safari/537.36" etag="lGHe89a1z0MEE60ihTNn" version="12.2.9" type="github" pages="1">
  <diagram id="ICdfpJFsuThwmuI50rdp" name="Page-1">
    <mxGraphModel dx="1208" dy="779" grid="1" gridSize="10" guides="1" tooltips="1" connect="1" arrows="1" fold="1" page="1" pageScale="1" pageWidth="850" pageHeight="1100" math="0" shadow="0">
      <root>
        <mxCell id="0"/>
        <mxCell id="1" parent="0"/>
        <mxCell id="f9F8cFvLClXmry9gnk70-8" value="SafeStreets" style="html=1;verticalAlign=top;" parent="1" vertex="1">
          <mxGeometry x="560" y="110" width="640" height="680" as="geometry"/>
        </mxCell>
        <mxCell id="f9F8cFvLClXmry9gnk70-9" value="" style="shape=component;jettyWidth=8;jettyHeight=4;" parent="f9F8cFvLClXmry9gnk70-8" vertex="1">
          <mxGeometry x="1" width="20" height="20" relative="1" as="geometry">
            <mxPoint x="-27" y="7" as="offset"/>
          </mxGeometry>
        </mxCell>
        <mxCell id="f9F8cFvLClXmry9gnk70-27" value="Module" style="shape=component;align=left;spacingLeft=36;" parent="f9F8cFvLClXmry9gnk70-8" vertex="1">
          <mxGeometry x="260" y="77" width="120" height="60" as="geometry"/>
        </mxCell>
        <mxCell id="f9F8cFvLClXmry9gnk70-28" value="Module" style="shape=component;align=left;spacingLeft=36;" parent="f9F8cFvLClXmry9gnk70-8" vertex="1">
          <mxGeometry x="260" y="182" width="120" height="60" as="geometry"/>
        </mxCell>
        <mxCell id="f9F8cFvLClXmry9gnk70-29" value="Module" style="shape=component;align=left;spacingLeft=36;" parent="f9F8cFvLClXmry9gnk70-8" vertex="1">
          <mxGeometry x="260" y="293" width="120" height="60" as="geometry"/>
        </mxCell>
        <mxCell id="f9F8cFvLClXmry9gnk70-30" value="Module" style="shape=component;align=left;spacingLeft=36;" parent="f9F8cFvLClXmry9gnk70-8" vertex="1">
          <mxGeometry x="260" y="419" width="120" height="60" as="geometry"/>
        </mxCell>
        <mxCell id="f9F8cFvLClXmry9gnk70-31" value="Module" style="shape=component;align=left;spacingLeft=36;" parent="f9F8cFvLClXmry9gnk70-8" vertex="1">
          <mxGeometry x="260" y="560" width="120" height="60" as="geometry"/>
        </mxCell>
        <mxCell id="Rg6xezFzuOhrAB8FiAtQ-181" style="edgeStyle=orthogonalEdgeStyle;rounded=0;orthogonalLoop=1;jettySize=auto;html=1;entryX=1;entryY=0.5;entryDx=0;entryDy=0;entryPerimeter=0;endArrow=none;endFill=0;startArrow=none;startFill=0;exitX=1;exitY=0.5;exitDx=0;exitDy=0;" parent="1" source="f9F8cFvLClXmry9gnk70-10" target="Rg6xezFzuOhrAB8FiAtQ-190" edge="1">
          <mxGeometry relative="1" as="geometry">
            <mxPoint x="320" y="318" as="sourcePoint"/>
            <mxPoint x="460" y="433" as="targetPoint"/>
          </mxGeometry>
        </mxCell>
        <mxCell id="Rg6xezFzuOhrAB8FiAtQ-186" style="edgeStyle=orthogonalEdgeStyle;rounded=0;orthogonalLoop=1;jettySize=auto;html=1;entryX=1;entryY=0.5;entryDx=0;entryDy=0;entryPerimeter=0;startArrow=none;startFill=0;endArrow=none;endFill=0;exitX=1;exitY=0.5;exitDx=0;exitDy=0;" parent="1" source="f9F8cFvLClXmry9gnk70-13" target="Rg6xezFzuOhrAB8FiAtQ-190" edge="1">
          <mxGeometry relative="1" as="geometry">
            <mxPoint x="320" y="433" as="sourcePoint"/>
            <mxPoint x="460" y="433" as="targetPoint"/>
          </mxGeometry>
        </mxCell>
        <mxCell id="Rg6xezFzuOhrAB8FiAtQ-187" style="edgeStyle=orthogonalEdgeStyle;rounded=0;orthogonalLoop=1;jettySize=auto;html=1;entryX=1;entryY=0.5;entryDx=0;entryDy=0;entryPerimeter=0;startArrow=none;startFill=0;endArrow=none;endFill=0;exitX=1;exitY=0.5;exitDx=0;exitDy=0;" parent="1" source="f9F8cFvLClXmry9gnk70-15" target="Rg6xezFzuOhrAB8FiAtQ-190" edge="1">
          <mxGeometry relative="1" as="geometry">
            <mxPoint x="320" y="549" as="sourcePoint"/>
            <mxPoint x="460" y="433" as="targetPoint"/>
          </mxGeometry>
        </mxCell>
        <mxCell id="Rg6xezFzuOhrAB8FiAtQ-190" value="" style="shape=providedRequiredInterface;html=1;verticalLabelPosition=bottom;rotation=-180;" parent="1" vertex="1">
          <mxGeometry x="460" y="423" width="20" height="20" as="geometry"/>
        </mxCell>
        <mxCell id="Rg6xezFzuOhrAB8FiAtQ-207" style="edgeStyle=orthogonalEdgeStyle;rounded=0;orthogonalLoop=1;jettySize=auto;html=1;entryX=1;entryY=0.5;entryDx=0;entryDy=0;entryPerimeter=0;startArrow=none;startFill=0;endArrow=none;endFill=0;fontSize=8;exitX=0;exitY=0.5;exitDx=0;exitDy=0;" parent="1" source="f9F8cFvLClXmry9gnk70-10" target="Rg6xezFzuOhrAB8FiAtQ-204" edge="1">
          <mxGeometry relative="1" as="geometry">
            <mxPoint x="170" y="318" as="sourcePoint"/>
          </mxGeometry>
        </mxCell>
        <mxCell id="Rg6xezFzuOhrAB8FiAtQ-208" style="edgeStyle=orthogonalEdgeStyle;rounded=0;orthogonalLoop=1;jettySize=auto;html=1;entryX=1;entryY=0.5;entryDx=0;entryDy=0;entryPerimeter=0;startArrow=none;startFill=0;endArrow=none;endFill=0;fontSize=8;exitX=0;exitY=0.5;exitDx=0;exitDy=0;" parent="1" source="f9F8cFvLClXmry9gnk70-13" target="Rg6xezFzuOhrAB8FiAtQ-204" edge="1">
          <mxGeometry relative="1" as="geometry">
            <mxPoint x="170" y="433" as="sourcePoint"/>
          </mxGeometry>
        </mxCell>
        <mxCell id="Rg6xezFzuOhrAB8FiAtQ-209" style="edgeStyle=orthogonalEdgeStyle;rounded=0;orthogonalLoop=1;jettySize=auto;html=1;entryX=1;entryY=0.5;entryDx=0;entryDy=0;entryPerimeter=0;startArrow=none;startFill=0;endArrow=none;endFill=0;fontSize=8;exitX=0;exitY=0.5;exitDx=0;exitDy=0;" parent="1" source="f9F8cFvLClXmry9gnk70-15" target="Rg6xezFzuOhrAB8FiAtQ-204" edge="1">
          <mxGeometry relative="1" as="geometry">
            <mxPoint x="170" y="549" as="sourcePoint"/>
          </mxGeometry>
        </mxCell>
        <mxCell id="Rg6xezFzuOhrAB8FiAtQ-199" style="edgeStyle=orthogonalEdgeStyle;rounded=0;orthogonalLoop=1;jettySize=auto;html=1;entryX=0;entryY=0.5;entryDx=0;entryDy=0;entryPerimeter=0;startArrow=none;startFill=0;endArrow=none;endFill=0;" parent="1" source="Rg6xezFzuOhrAB8FiAtQ-197" target="Rg6xezFzuOhrAB8FiAtQ-190" edge="1">
          <mxGeometry relative="1" as="geometry"/>
        </mxCell>
        <mxCell id="Rg6xezFzuOhrAB8FiAtQ-197" value="Router" style="shape=component;align=center;spacingLeft=36;" parent="1" vertex="1">
          <mxGeometry x="620" y="403" width="120" height="60" as="geometry"/>
        </mxCell>
        <mxCell id="Rg6xezFzuOhrAB8FiAtQ-206" style="edgeStyle=orthogonalEdgeStyle;rounded=0;orthogonalLoop=1;jettySize=auto;html=1;entryX=0;entryY=0.5;entryDx=0;entryDy=0;entryPerimeter=0;startArrow=none;startFill=0;endArrow=none;endFill=0;fontSize=8;exitX=0;exitY=0.5;exitDx=0;exitDy=0;" parent="1" source="f9F8cFvLClXmry9gnk70-25" target="Rg6xezFzuOhrAB8FiAtQ-204" edge="1">
          <mxGeometry relative="1" as="geometry">
            <mxPoint x="185" y="780" as="sourcePoint"/>
          </mxGeometry>
        </mxCell>
        <mxCell id="Rg6xezFzuOhrAB8FiAtQ-204" value="" style="shape=providedRequiredInterface;html=1;verticalLabelPosition=bottom;fontSize=8;align=center;rotation=-90;" parent="1" vertex="1">
          <mxGeometry x="80" y="630" width="20" height="20" as="geometry"/>
        </mxCell>
        <mxCell id="Rg6xezFzuOhrAB8FiAtQ-210" style="edgeStyle=orthogonalEdgeStyle;rounded=0;orthogonalLoop=1;jettySize=auto;html=1;entryX=0;entryY=0.5;entryDx=0;entryDy=0;entryPerimeter=0;startArrow=none;startFill=0;endArrow=none;endFill=0;fontSize=8;exitX=0;exitY=0.5;exitDx=0;exitDy=0;" parent="1" source="f9F8cFvLClXmry9gnk70-32" target="Rg6xezFzuOhrAB8FiAtQ-212" edge="1">
          <mxGeometry relative="1" as="geometry">
            <mxPoint x="1475" y="433.66666666666674" as="sourcePoint"/>
          </mxGeometry>
        </mxCell>
        <mxCell id="Rg6xezFzuOhrAB8FiAtQ-212" value="" style="shape=providedRequiredInterface;html=1;verticalLabelPosition=bottom;fontSize=8;align=center;rotation=180;" parent="1" vertex="1">
          <mxGeometry x="1300" y="423" width="20" height="20" as="geometry"/>
        </mxCell>
        <mxCell id="f9F8cFvLClXmry9gnk70-2" value="" style="whiteSpace=wrap;html=1;aspect=fixed;align=center;" parent="1" vertex="1">
          <mxGeometry x="360" y="200" width="10" height="10" as="geometry"/>
        </mxCell>
        <mxCell id="f9F8cFvLClXmry9gnk70-7" value="" style="whiteSpace=wrap;html=1;aspect=fixed;" parent="1" vertex="1">
          <mxGeometry x="540" y="423" width="20" height="20" as="geometry"/>
        </mxCell>
        <mxCell id="f9F8cFvLClXmry9gnk70-10" value="UserMobileApp" style="html=1;align=center;" parent="1" vertex="1">
          <mxGeometry x="155" y="247" width="180" height="90" as="geometry"/>
        </mxCell>
        <mxCell id="f9F8cFvLClXmry9gnk70-11" value="" style="shape=component;jettyWidth=8;jettyHeight=4;align=center;" parent="f9F8cFvLClXmry9gnk70-10" vertex="1">
          <mxGeometry x="1" width="20" height="20" relative="1" as="geometry">
            <mxPoint x="-27" y="7" as="offset"/>
          </mxGeometry>
        </mxCell>
        <mxCell id="f9F8cFvLClXmry9gnk70-12" value="&lt;span style=&quot;color: rgba(0 , 0 , 0 , 0) ; font-family: monospace ; font-size: 0px&quot;&gt;%3CmxGraphModel%3E%3Croot%3E%3CmxCell%20id%3D%220%22%2F%3E%3CmxCell%20id%3D%221%22%20parent%3D%220%22%2F%3E%3CmxCell%20id%3D%222%22%20value%3D%22%26amp%3Blaquo%3BAnnotation%26amp%3Braquo%3B%26lt%3Bbr%2F%26gt%3B%26lt%3Bb%26gt%3BComponent%26lt%3B%2Fb%26gt%3B%22%20style%3D%22html%3D1%3B%22%20vertex%3D%221%22%20parent%3D%221%22%3E%3CmxGeometry%20x%3D%22155%22%20y%3D%22270%22%20width%3D%22180%22%20height%3D%2290%22%20as%3D%22geometry%22%2F%3E%3C%2FmxCell%3E%3CmxCell%20id%3D%223%22%20value%3D%22%22%20style%3D%22shape%3Dcomponent%3BjettyWidth%3D8%3BjettyHeight%3D4%3B%22%20vertex%3D%221%22%20parent%3D%222%22%3E%3CmxGeometry%20x%3D%221%22%20width%3D%2220%22%20height%3D%2220%22%20relative%3D%221%22%20as%3D%22geometry%22%3E%3CmxPoint%20x%3D%22-27%22%20y%3D%227%22%20as%3D%22offset%22%2F%3E%3C%2FmxGeometry%3E%3C%2FmxCell%3E%3C%2Froot%3E%3C%2FmxGraphModel%3E&lt;/span&gt;" style="text;html=1;resizable=0;points=[];autosize=1;align=center;verticalAlign=top;spacingTop=-4;" parent="1" vertex="1">
          <mxGeometry x="169" y="543" width="20" height="20" as="geometry"/>
        </mxCell>
        <mxCell id="f9F8cFvLClXmry9gnk70-13" value="LocalOfficerWebApp" style="html=1;align=center;" parent="1" vertex="1">
          <mxGeometry x="155" y="388" width="180" height="90" as="geometry"/>
        </mxCell>
        <mxCell id="f9F8cFvLClXmry9gnk70-14" value="" style="shape=component;jettyWidth=8;jettyHeight=4;align=center;" parent="f9F8cFvLClXmry9gnk70-13" vertex="1">
          <mxGeometry x="1" width="20" height="20" relative="1" as="geometry">
            <mxPoint x="-27" y="7" as="offset"/>
          </mxGeometry>
        </mxCell>
        <mxCell id="f9F8cFvLClXmry9gnk70-15" value="MunicipalEmployeeWebApp" style="html=1;align=center;" parent="1" vertex="1">
          <mxGeometry x="155" y="529" width="180" height="90" as="geometry"/>
        </mxCell>
        <mxCell id="f9F8cFvLClXmry9gnk70-16" value="" style="shape=component;jettyWidth=8;jettyHeight=4;align=center;" parent="f9F8cFvLClXmry9gnk70-15" vertex="1">
          <mxGeometry x="1" width="20" height="20" relative="1" as="geometry">
            <mxPoint x="-27" y="7" as="offset"/>
          </mxGeometry>
        </mxCell>
        <mxCell id="f9F8cFvLClXmry9gnk70-25" value="MS" style="html=1;" parent="1" vertex="1">
          <mxGeometry x="155" y="745" width="180" height="90" as="geometry"/>
        </mxCell>
        <mxCell id="f9F8cFvLClXmry9gnk70-26" value="" style="shape=component;jettyWidth=8;jettyHeight=4;" parent="f9F8cFvLClXmry9gnk70-25" vertex="1">
          <mxGeometry x="1" width="20" height="20" relative="1" as="geometry">
            <mxPoint x="-27" y="7" as="offset"/>
          </mxGeometry>
        </mxCell>
        <mxCell id="f9F8cFvLClXmry9gnk70-32" value="DBMS" style="html=1;align=center;" parent="1" vertex="1">
          <mxGeometry x="1430" y="388" width="180" height="90" as="geometry"/>
        </mxCell>
        <mxCell id="f9F8cFvLClXmry9gnk70-33" value="" style="shape=component;jettyWidth=8;jettyHeight=4;" parent="f9F8cFvLClXmry9gnk70-32" vertex="1">
          <mxGeometry x="1" width="20" height="20" relative="1" as="geometry">
            <mxPoint x="-27" y="7" as="offset"/>
          </mxGeometry>
        </mxCell>
        <mxCell id="f9F8cFvLClXmry9gnk70-35" value="" style="whiteSpace=wrap;html=1;aspect=fixed;" parent="1" vertex="1">
          <mxGeometry x="1200" y="423" width="20" height="20" as="geometry"/>
        </mxCell>
        <mxCell id="f9F8cFvLClXmry9gnk70-36" style="edgeStyle=orthogonalEdgeStyle;rounded=0;orthogonalLoop=1;jettySize=auto;html=1;entryX=1;entryY=0.475;entryDx=0;entryDy=0;entryPerimeter=0;endArrow=none;endFill=0;" parent="1" source="Rg6xezFzuOhrAB8FiAtQ-212" target="f9F8cFvLClXmry9gnk70-35" edge="1">
          <mxGeometry relative="1" as="geometry">
            <mxPoint x="1300" y="433" as="sourcePoint"/>
            <mxPoint x="1200" y="433" as="targetPoint"/>
            <Array as="points">
              <mxPoint x="1260" y="433"/>
            </Array>
          </mxGeometry>
        </mxCell>
      </root>
    </mxGraphModel>
  </diagram>
</mxfile>
